<?xml version="1.0" encoding="UTF-8"?>
<svg version="1.1" xmlns="http://www.w3.org/2000/svg" width="4000" height="5000">
<path d="M0 0 C45.21 0 90.42 0 137 0 C137 45.21 137 90.42 137 137 C182.54 137 228.08 137 275 137 C275 182.54 275 228.08 275 275 C319.88 275 364.76 275 411 275 C411 229.46 411 183.92 411 137 C456.54 137 502.08 137 549 137 C549 91.79 549 46.58 549 0 C594.21 0 639.42 0 686 0 C686 317.13 686 634.26 686 961 C640.79 961 595.58 961 549 961 C549 734.95 549 508.9 549 276 C503.79 276 458.58 276 412 276 C412 366.42 412 456.84 412 550 C366.46 550 320.92 550 274 550 C274 459.58 274 369.16 274 276 C228.79 276 183.58 276 137 276 C137 502.05 137 728.1 137 961 C91.79 961 46.58 961 0 961 C0 643.87 0 326.74 0 0 Z " fill="#000000" transform="translate(1602,2217)"/>
<path d="M0 0 C45.21 0 90.42 0 137 0 C137 181.17 137 362.34 137 549 C182.21 549 227.42 549 274 549 C274 503.46 274 457.92 274 411 C319.21 411 364.42 411 411 411 C411 366.12 411 321.24 411 275 C456.54 275 502.08 275 549 275 C549 184.25 549 93.5 549 0 C594.21 0 639.42 0 686 0 C686 317.13 686 634.26 686 961 C640.79 961 595.58 961 549 961 C549 779.83 549 598.66 549 412 C503.79 412 458.58 412 412 412 C412 457.54 412 503.08 412 550 C366.79 550 321.58 550 275 550 C275 595.21 275 640.42 275 687 C229.46 687 183.92 687 137 687 C137 777.42 137 867.84 137 961 C91.79 961 46.58 961 0 961 C0 643.87 0 326.74 0 0 Z " fill="#000000" transform="translate(803,2217)"/>
<path d="M0 0 C45.21 0 90.42 0 137 0 C137 181.17 137 362.34 137 549 C182.54 549 228.08 549 275 549 C275 594.21 275 639.42 275 686 C319.88 686 364.76 686 411 686 C411 640.79 411 595.58 411 549 C456.54 549 502.08 549 549 549 C549 367.83 549 186.66 549 0 C594.21 0 639.42 0 686 0 C686 181.5 686 363 686 550 C641.12 550 596.24 550 550 550 C550 595.21 550 640.42 550 687 C504.46 687 458.92 687 412 687 C412 777.42 412 867.84 412 961 C366.46 961 320.92 961 274 961 C274 870.58 274 780.16 274 687 C228.46 687 182.92 687 136 687 C136 641.79 136 596.58 136 550 C91.12 550 46.24 550 0 550 C0 368.5 0 187 0 0 Z " fill="#000000" transform="translate(2398,2217)"/>
</svg>
